solid OpenSCAD_Model
  facet normal -1 0 0
    outer loop
      vertex -3.3 -2 -0.72794
      vertex -3.3 1 -2.22045e-16
      vertex -3.3 1 -4.3032
    endloop
  endfacet
  facet normal -1 -0 0
    outer loop
      vertex -3.3 1 -2.22045e-16
      vertex -3.3 -2 -0.72794
      vertex -3.3 -2 4.44089e-16
    endloop
  endfacet
  facet normal 0 -1 0
    outer loop
      vertex -3.3 -2 -0.72794
      vertex -2.14388 -2 4.44089e-16
      vertex -3.3 -2 4.44089e-16
    endloop
  endfacet
  facet normal 0 -1 -0
    outer loop
      vertex -2.14388 -2 4.44089e-16
      vertex -3.3 -2 -0.72794
      vertex -1.14226 -2 4.44089e-16
    endloop
  endfacet
  facet normal 0 -1 -0
    outer loop
      vertex -1.14226 -2 4.44089e-16
      vertex -3.3 -2 -0.72794
      vertex 0.253128 -2 4.44089e-16
    endloop
  endfacet
  facet normal 0 -1 0
    outer loop
      vertex 3.3 -2 -0.72794
      vertex 0.253128 -2 4.44089e-16
      vertex -3.3 -2 -0.72794
    endloop
  endfacet
  facet normal 0 -1 0
    outer loop
      vertex 0.253128 -2 4.44089e-16
      vertex 3.3 -2 -0.72794
      vertex 1.02113 -2 4.44089e-16
    endloop
  endfacet
  facet normal 0 -1 0
    outer loop
      vertex 1.02113 -2 4.44089e-16
      vertex 3.3 -2 -0.72794
      vertex 2.36813 -2 4.44089e-16
    endloop
  endfacet
  facet normal 0 -1 0
    outer loop
      vertex 2.36813 -2 4.44089e-16
      vertex 3.3 -2 -0.72794
      vertex 3.29314 -2 4.44089e-16
    endloop
  endfacet
  facet normal 0 -1 0
    outer loop
      vertex 3.29314 -2 4.44089e-16
      vertex 3.3 -2 -0.72794
      vertex 3.3 -2 4.44089e-16
    endloop
  endfacet
  facet normal 0 -1 0
    outer loop
      vertex -3.00662 -2 0.608246
      vertex -2.40086 -2 1.088
      vertex -3.10487 -2 1.088
    endloop
  endfacet
  facet normal 0 -1 -0
    outer loop
      vertex -2.40086 -2 1.088
      vertex -3.00662 -2 0.608246
      vertex -2.35162 -2 0.901245
    endloop
  endfacet
  facet normal 0 -1 -0
    outer loop
      vertex -2.35162 -2 0.901245
      vertex -3.00662 -2 0.608246
      vertex -2.26987 -2 0.768997
    endloop
  endfacet
  facet normal 0 -1 0
    outer loop
      vertex -2.71187 -2 0.242996
      vertex -2.26987 -2 0.768997
      vertex -3.00662 -2 0.608246
    endloop
  endfacet
  facet normal 0 -1 0
    outer loop
      vertex -2.24562 -2 0.0127411
      vertex -2.26987 -2 0.768997
      vertex -2.71187 -2 0.242996
    endloop
  endfacet
  facet normal 0 -1 0
    outer loop
      vertex -2.26987 -2 0.768997
      vertex -2.24562 -2 0.0127411
      vertex -2.02737 -2 0.624237
    endloop
  endfacet
  facet normal 0 -1 0
    outer loop
      vertex -2.14388 -2 4.44089e-16
      vertex -2.02737 -2 0.624237
      vertex -2.24562 -2 0.0127411
    endloop
  endfacet
  facet normal 0 -1 -0
    outer loop
      vertex -1.65787 -2 0.575989
      vertex -2.14388 -2 4.44089e-16
      vertex -1.14226 -2 4.44089e-16
    endloop
  endfacet
  facet normal 0 -1 -0
    outer loop
      vertex -2.02737 -2 0.624237
      vertex -2.14388 -2 4.44089e-16
      vertex -1.65787 -2 0.575989
    endloop
  endfacet
  facet normal -0 -1 0
    outer loop
      vertex -1.03687 -2 0.0137482
      vertex -1.65787 -2 0.575989
      vertex -1.14226 -2 4.44089e-16
    endloop
  endfacet
  facet normal 0 -1 0
    outer loop
      vertex -1.65787 -2 0.575989
      vertex -1.03687 -2 0.0137482
      vertex -0.592865 -2 0.246994
    endloop
  endfacet
  facet normal 0 -1 0
    outer loop
      vertex -2.29611 -2 2.70325
      vertex -2.70087 -2 3.27499
      vertex -2.95587 -2 2.9265
    endloop
  endfacet
  facet normal 0 -1 0
    outer loop
      vertex -2.70087 -2 3.27499
      vertex -1.98236 -2 2.91649
      vertex -1.73587 -2 2.94398
    endloop
  endfacet
  facet normal 0 -1 0
    outer loop
      vertex -2.70087 -2 3.27499
      vertex -2.17387 -2 2.834
      vertex -1.98236 -2 2.91649
    endloop
  endfacet
  facet normal 0 -1 0
    outer loop
      vertex -2.70087 -2 3.27499
      vertex -2.29611 -2 2.70325
      vertex -2.17387 -2 2.834
    endloop
  endfacet
  facet normal 0 -1 0
    outer loop
      vertex -2.95587 -2 2.9265
      vertex -2.33687 -2 2.52899
      vertex -2.29611 -2 2.70325
    endloop
  endfacet
  facet normal 0 -1 0
    outer loop
      vertex -3.04086 -2 2.49899
      vertex -2.33687 -2 2.52899
      vertex -2.95587 -2 2.9265
    endloop
  endfacet
  facet normal 0 -1 0
    outer loop
      vertex -3.04086 -2 2.49899
      vertex -2.29662 -2 2.37099
      vertex -2.33687 -2 2.52899
    endloop
  endfacet
  facet normal 0 -1 0
    outer loop
      vertex -2.95262 -2 2.05475
      vertex -2.29662 -2 2.37099
      vertex -3.04086 -2 2.49899
    endloop
  endfacet
  facet normal 0 -1 0
    outer loop
      vertex -2.68787 -2 1.74599
      vertex -2.29662 -2 2.37099
      vertex -2.95262 -2 2.05475
    endloop
  endfacet
  facet normal 0 -1 -0
    outer loop
      vertex -2.29662 -2 2.37099
      vertex -2.68787 -2 1.74599
      vertex -2.17587 -2 2.25899
    endloop
  endfacet
  facet normal 0 -1 0
    outer loop
      vertex -2.39511 -2 1.60799
      vertex -2.17587 -2 2.25899
      vertex -2.68787 -2 1.74599
    endloop
  endfacet
  facet normal 0 -1 -0
    outer loop
      vertex -2.17587 -2 2.25899
      vertex -2.39511 -2 1.60799
      vertex -2.01187 -2 2.19449
    endloop
  endfacet
  facet normal 0 -1 0
    outer loop
      vertex -2.01187 -2 2.19449
      vertex -1.93486 -2 1.48199
      vertex -1.72787 -2 2.11899
    endloop
  endfacet
  facet normal 0 -1 0
    outer loop
      vertex -1.93486 -2 1.48199
      vertex -2.01187 -2 2.19449
      vertex -2.39511 -2 1.60799
    endloop
  endfacet
  facet normal 0 -1 0
    outer loop
      vertex -1.56686 -2 1.39999
      vertex -1.72787 -2 2.11899
      vertex -1.93486 -2 1.48199
    endloop
  endfacet
  facet normal 0 -1 0
    outer loop
      vertex -1.72787 -2 2.11899
      vertex -1.56686 -2 1.39999
      vertex -1.13387 -2 1.978
    endloop
  endfacet
  facet normal 0 -1 0
    outer loop
      vertex -1.28462 -2 1.327
      vertex -1.13387 -2 1.978
      vertex -1.56686 -2 1.39999
    endloop
  endfacet
  facet normal 0 -1 -0
    outer loop
      vertex -1.13387 -2 1.978
      vertex -1.28462 -2 1.327
      vertex -0.790619 -2 1.86925
    endloop
  endfacet
  facet normal 0 -1 0
    outer loop
      vertex -1.08586 -2 1.24599
      vertex -0.790619 -2 1.86925
      vertex -1.28462 -2 1.327
    endloop
  endfacet
  facet normal 0 -1 -0
    outer loop
      vertex -0.790619 -2 1.86925
      vertex -1.08586 -2 1.24599
      vertex -0.540863 -2 1.72899
    endloop
  endfacet
  facet normal 0 -1 0
    outer loop
      vertex -0.968124 -2 1.14099
      vertex -0.540863 -2 1.72899
      vertex -1.08586 -2 1.24599
    endloop
  endfacet
  facet normal 0 -1 -0
    outer loop
      vertex -0.540863 -2 1.72899
      vertex -0.968124 -2 1.14099
      vertex -0.303864 -2 1.43274
    endloop
  endfacet
  facet normal 0 -1 0
    outer loop
      vertex -0.928864 -2 1
      vertex -0.303864 -2 1.43274
      vertex -0.968124 -2 1.14099
    endloop
  endfacet
  facet normal 0 -1 -0
    outer loop
      vertex -0.303864 -2 1.43274
      vertex -0.928864 -2 1
      vertex -0.224869 -2 1.028
    endloop
  endfacet
  facet normal 0 -1 0
    outer loop
      vertex -0.316864 -2 0.597748
      vertex -0.928864 -2 1
      vertex -1.00562 -2 0.770996
    endloop
  endfacet
  facet normal 0 -1 0
    outer loop
      vertex -0.592865 -2 0.246994
      vertex -1.00562 -2 0.770996
      vertex -1.23587 -2 0.627991
    endloop
  endfacet
  facet normal 0 -1 0
    outer loop
      vertex -0.928864 -2 1
      vertex -0.316864 -2 0.597748
      vertex -0.224869 -2 1.028
    endloop
  endfacet
  facet normal 0 -1 0
    outer loop
      vertex -0.592865 -2 0.246994
      vertex -1.23587 -2 0.627991
      vertex -1.42236 -2 0.588989
    endloop
  endfacet
  facet normal 0 -1 0
    outer loop
      vertex -0.592865 -2 0.246994
      vertex -1.42236 -2 0.588989
      vertex -1.65787 -2 0.575989
    endloop
  endfacet
  facet normal 0 -1 0
    outer loop
      vertex -1.00562 -2 0.770996
      vertex -0.592865 -2 0.246994
      vertex -0.316864 -2 0.597748
    endloop
  endfacet
  facet normal 0 -1 0
    outer loop
      vertex -1.73587 -2 2.94398
      vertex -1.70087 -2 3.584
      vertex -2.28036 -2 3.50674
    endloop
  endfacet
  facet normal 0 -1 0
    outer loop
      vertex -1.50987 -2 2.92299
      vertex -1.70087 -2 3.584
      vertex -1.73587 -2 2.94398
    endloop
  endfacet
  facet normal 0 -1 0
    outer loop
      vertex -1.73587 -2 2.94398
      vertex -2.28036 -2 3.50674
      vertex -2.70087 -2 3.27499
    endloop
  endfacet
  facet normal 0 -1 0
    outer loop
      vertex -1.70087 -2 3.584
      vertex -1.50987 -2 2.92299
      vertex -1.19037 -2 3.51024
    endloop
  endfacet
  facet normal 0 -1 0
    outer loop
      vertex -1.32387 -2 2.85999
      vertex -1.19037 -2 3.51024
      vertex -1.50987 -2 2.92299
    endloop
  endfacet
  facet normal 0 -1 -0
    outer loop
      vertex -1.19037 -2 3.51024
      vertex -1.32387 -2 2.85999
      vertex -0.760864 -2 3.28899
    endloop
  endfacet
  facet normal 0 -1 0
    outer loop
      vertex -1.13261 -2 2.6895
      vertex -0.760864 -2 3.28899
      vertex -1.32387 -2 2.85999
    endloop
  endfacet
  facet normal 0 -1 -0
    outer loop
      vertex -0.760864 -2 3.28899
      vertex -1.13261 -2 2.6895
      vertex -0.464371 -2 2.92725
    endloop
  endfacet
  facet normal 0 -1 0
    outer loop
      vertex -1.05687 -2 2.43199
      vertex -0.464371 -2 2.92725
      vertex -1.13261 -2 2.6895
    endloop
  endfacet
  facet normal 0 -1 -0
    outer loop
      vertex -0.464371 -2 2.92725
      vertex -1.05687 -2 2.43199
      vertex -0.352875 -2 2.43199
    endloop
  endfacet
  facet normal 0 -1 0
    outer loop
      vertex 0.253128 -2 3.51999
      vertex 1.02113 -2 2.17999
      vertex 1.02113 -2 3.51999
    endloop
  endfacet
  facet normal 0 -1 0
    outer loop
      vertex 1.02113 -2 2.17999
      vertex 1.31613 -2 1.48999
      vertex 1.86313 -2 2.047
    endloop
  endfacet
  facet normal 0 -1 0
    outer loop
      vertex 0.253128 -2 4.44089e-16
      vertex 1.02113 -2 2.17999
      vertex 0.253128 -2 3.51999
    endloop
  endfacet
  facet normal 0 -1 0
    outer loop
      vertex 1.02113 -2 2.17999
      vertex 1.02113 -2 1.17699
      vertex 1.31613 -2 1.48999
    endloop
  endfacet
  facet normal 0 -1 -0
    outer loop
      vertex 1.02113 -2 2.17999
      vertex 0.253128 -2 4.44089e-16
      vertex 1.02113 -2 1.17699
    endloop
  endfacet
  facet normal 0 -1 -0
    outer loop
      vertex 1.02113 -2 1.17699
      vertex 0.253128 -2 4.44089e-16
      vertex 1.02113 -2 4.44089e-16
    endloop
  endfacet
  facet normal 0 -1 0
    outer loop
      vertex 1.86313 -2 2.047
      vertex 2.27814 -2 3.51999
      vertex 1.02113 -2 2.17999
    endloop
  endfacet
  facet normal 0 -1 -0
    outer loop
      vertex 2.27814 -2 3.51999
      vertex 1.86313 -2 2.047
      vertex 3.22214 -2 3.51999
    endloop
  endfacet
  facet normal 0 -1 0
    outer loop
      vertex 2.36813 -2 4.44089e-16
      vertex 1.86313 -2 2.047
      vertex 1.31613 -2 1.48999
    endloop
  endfacet
  facet normal 0 -1 0
    outer loop
      vertex 1.86313 -2 2.047
      vertex 2.36813 -2 4.44089e-16
      vertex 3.29314 -2 4.44089e-16
    endloop
  endfacet
  facet normal 1 0 0
    outer loop
      vertex 3.3 -2 -0.72794
      vertex 3.3 1 -2.22045e-16
      vertex 3.3 -2 4.44089e-16
    endloop
  endfacet
  facet normal 1 0 0
    outer loop
      vertex 3.3 1 -2.22045e-16
      vertex 3.3 -2 -0.72794
      vertex 3.3 1 -4.3032
    endloop
  endfacet
  facet normal 0 0 -1
    outer loop
      vertex -3.3 1.58468 -5
      vertex 3.3 2 -5
      vertex 3.3 1.58468 -5
    endloop
  endfacet
  facet normal -0 0 -1
    outer loop
      vertex 3.3 2 -5
      vertex -3.3 1.58468 -5
      vertex -3.3 2 -5
    endloop
  endfacet
  facet normal -0 2.22045e-16 1
    outer loop
      vertex 3.29314 1 -2.22045e-16
      vertex 3.3 -2 4.44089e-16
      vertex 3.3 1 -2.22045e-16
    endloop
  endfacet
  facet normal 0 2.22045e-16 1
    outer loop
      vertex 3.3 -2 4.44089e-16
      vertex 3.29314 1 -2.22045e-16
      vertex 3.29314 -2 4.44089e-16
    endloop
  endfacet
  facet normal -0 2.22045e-16 1
    outer loop
      vertex -3.3 1 -2.22045e-16
      vertex -2.14388 -2 4.44089e-16
      vertex -2.14388 1 -2.22045e-16
    endloop
  endfacet
  facet normal 0 2.22045e-16 1
    outer loop
      vertex -2.14388 -2 4.44089e-16
      vertex -3.3 1 -2.22045e-16
      vertex -3.3 -2 4.44089e-16
    endloop
  endfacet
  facet normal 0 2.22045e-16 1
    outer loop
      vertex 0.253128 1 -2.22045e-16
      vertex -0.5 0.5 -1.11022e-16
      vertex 0.253128 0.5 -1.11022e-16
    endloop
  endfacet
  facet normal 0 2.22045e-16 1
    outer loop
      vertex -0.5 0.5 -1.11022e-16
      vertex -1.14226 1 -2.22045e-16
      vertex -0.5 -0.5 1.11022e-16
    endloop
  endfacet
  facet normal -0 2.22045e-16 1
    outer loop
      vertex -1.14226 1 -2.22045e-16
      vertex -0.5 0.5 -1.11022e-16
      vertex 0.253128 1 -2.22045e-16
    endloop
  endfacet
  facet normal -0 2.22045e-16 1
    outer loop
      vertex -0.5 -0.5 1.11022e-16
      vertex 0.253128 -2 4.44089e-16
      vertex 0.253128 -0.5 1.11022e-16
    endloop
  endfacet
  facet normal 0 2.22045e-16 1
    outer loop
      vertex -0.5 -0.5 1.11022e-16
      vertex -1.14226 -2 4.44089e-16
      vertex 0.253128 -2 4.44089e-16
    endloop
  endfacet
  facet normal 0 2.22045e-16 1
    outer loop
      vertex -1.14226 -2 4.44089e-16
      vertex -0.5 -0.5 1.11022e-16
      vertex -1.14226 1 -2.22045e-16
    endloop
  endfacet
  facet normal -0 2.22045e-16 1
    outer loop
      vertex 1.02113 1 -2.22045e-16
      vertex 2.36813 -2 4.44089e-16
      vertex 2.36813 1 -2.22045e-16
    endloop
  endfacet
  facet normal 0 2.22045e-16 1
    outer loop
      vertex 2.36813 -2 4.44089e-16
      vertex 1.02113 1 -2.22045e-16
      vertex 1.02113 -2 4.44089e-16
    endloop
  endfacet
  facet normal 0 -0.766045 -0.642788
    outer loop
      vertex -3.3 1 -4.3032
      vertex 3.3 -2 -0.72794
      vertex -3.3 -2 -0.72794
    endloop
  endfacet
  facet normal 0 -0.766045 -0.642788
    outer loop
      vertex 3.3 -2 -0.72794
      vertex -3.3 1 -4.3032
      vertex 3.3 1 -4.3032
    endloop
  endfacet
  facet normal -1 0 0
    outer loop
      vertex -0.5 -0.5 1.11022e-16
      vertex -0.5 0.5 0.365011
      vertex -0.5 0.5 -1.11022e-16
    endloop
  endfacet
  facet normal -1 -0 0
    outer loop
      vertex -0.5 0.5 0.365011
      vertex -0.5 -0.5 1.11022e-16
      vertex -0.5 -0.5 0.365011
    endloop
  endfacet
  facet normal 0 -1 0
    outer loop
      vertex 0.253128 -0.5 1.11022e-16
      vertex -0.39378 -0.5 0.5
      vertex -0.5 -0.5 0.365011
    endloop
  endfacet
  facet normal 0 -1 0
    outer loop
      vertex 0.253128 -0.5 1.11022e-16
      vertex -0.5 -0.5 0.365011
      vertex -0.5 -0.5 1.11022e-16
    endloop
  endfacet
  facet normal 0 -1 0
    outer loop
      vertex -0.39378 -0.5 0.5
      vertex 0.253128 -0.5 1.11022e-16
      vertex 0.253128 -0.5 0.5
    endloop
  endfacet
  facet normal 0 1 -0
    outer loop
      vertex 0.253128 0.5 -1.11022e-16
      vertex -0.39378 0.5 0.5
      vertex 0.253128 0.5 0.5
    endloop
  endfacet
  facet normal 0 1 0
    outer loop
      vertex -0.39378 0.5 0.5
      vertex 0.253128 0.5 -1.11022e-16
      vertex -0.5 0.5 0.365011
    endloop
  endfacet
  facet normal 0 1 0
    outer loop
      vertex -0.5 0.5 0.365011
      vertex 0.253128 0.5 -1.11022e-16
      vertex -0.5 0.5 -1.11022e-16
    endloop
  endfacet
  facet normal -0 0 1
    outer loop
      vertex -0.39378 0.5 0.5
      vertex 0.253128 -0.5 0.5
      vertex 0.253128 0.5 0.5
    endloop
  endfacet
  facet normal 0 0 1
    outer loop
      vertex 0.253128 -0.5 0.5
      vertex -0.39378 0.5 0.5
      vertex -0.39378 -0.5 0.5
    endloop
  endfacet
  facet normal 0.465062 0 -0.885278
    outer loop
      vertex -1.03687 -2 0.0137482
      vertex -0.592865 1 0.246994
      vertex -0.592865 -2 0.246994
    endloop
  endfacet
  facet normal 0.465062 0 -0.885278
    outer loop
      vertex -0.592865 1 0.246994
      vertex -1.03687 -2 0.0137482
      vertex -1.03687 1 0.0137482
    endloop
  endfacet
  facet normal 0.785873 1.27368e-08 -0.618388
    outer loop
      vertex -0.5 0.5 0.365011
      vertex -0.316864 1 0.597748
      vertex -0.39378 0.5 0.5
    endloop
  endfacet
  facet normal 0.785873 0 -0.618388
    outer loop
      vertex -0.316864 1 0.597748
      vertex -0.39378 -0.5 0.5
      vertex -0.39378 0.5 0.5
    endloop
  endfacet
  facet normal 0.785873 -4.24559e-09 -0.618388
    outer loop
      vertex -0.39378 -0.5 0.5
      vertex -0.316864 -2 0.597748
      vertex -0.5 -0.5 0.365011
    endloop
  endfacet
  facet normal 0.785873 0 -0.618388
    outer loop
      vertex -0.316864 -2 0.597748
      vertex -0.39378 -0.5 0.5
      vertex -0.316864 1 0.597748
    endloop
  endfacet
  facet normal 0.785873 1.6628e-09 -0.618388
    outer loop
      vertex -0.316864 1 0.597748
      vertex -0.5 0.5 0.365011
      vertex -0.592865 1 0.246994
    endloop
  endfacet
  facet normal 0.785873 0 -0.618388
    outer loop
      vertex -0.5 -0.5 0.365011
      vertex -0.592865 1 0.246994
      vertex -0.5 0.5 0.365011
    endloop
  endfacet
  facet normal 0.785873 0 -0.618388
    outer loop
      vertex -0.5 -0.5 0.365011
      vertex -0.592865 -2 0.246994
      vertex -0.592865 1 0.246994
    endloop
  endfacet
  facet normal 0.785873 -5.54267e-10 -0.618388
    outer loop
      vertex -0.592865 -2 0.246994
      vertex -0.5 -0.5 0.365011
      vertex -0.316864 -2 0.597748
    endloop
  endfacet
  facet normal 0.977896 0 -0.209091
    outer loop
      vertex -0.224869 -2 1.028
      vertex -0.316864 1 0.597748
      vertex -0.224869 1 1.028
    endloop
  endfacet
  facet normal 0.977896 0 -0.209091
    outer loop
      vertex -0.316864 1 0.597748
      vertex -0.224869 -2 1.028
      vertex -0.316864 -2 0.597748
    endloop
  endfacet
  facet normal 0.981481 -0 0.19156
    outer loop
      vertex -0.303864 -2 1.43274
      vertex -0.224869 1 1.028
      vertex -0.303864 1 1.43274
    endloop
  endfacet
  facet normal 0.981481 0 0.19156
    outer loop
      vertex -0.224869 1 1.028
      vertex -0.303864 -2 1.43274
      vertex -0.224869 -2 1.028
    endloop
  endfacet
  facet normal 0.780869 -0 0.624695
    outer loop
      vertex -0.540863 -2 1.72899
      vertex -0.303864 1 1.43274
      vertex -0.540863 1 1.72899
    endloop
  endfacet
  facet normal 0.780869 0 0.624695
    outer loop
      vertex -0.303864 1 1.43274
      vertex -0.540863 -2 1.72899
      vertex -0.303864 -2 1.43274
    endloop
  endfacet
  facet normal 0.489654 0 0.871917
    outer loop
      vertex -0.790619 1 1.86925
      vertex -0.540863 -2 1.72899
      vertex -0.540863 1 1.72899
    endloop
  endfacet
  facet normal 0.489654 0 0.871917
    outer loop
      vertex -0.540863 -2 1.72899
      vertex -0.790619 1 1.86925
      vertex -0.790619 -2 1.86925
    endloop
  endfacet
  facet normal 0.30203 0 0.953299
    outer loop
      vertex -1.13387 1 1.978
      vertex -0.790619 -2 1.86925
      vertex -0.790619 1 1.86925
    endloop
  endfacet
  facet normal 0.30203 0 0.953299
    outer loop
      vertex -0.790619 -2 1.86925
      vertex -1.13387 1 1.978
      vertex -1.13387 -2 1.978
    endloop
  endfacet
  facet normal 0.230939 0 0.972968
    outer loop
      vertex -1.72787 1 2.11899
      vertex -1.13387 -2 1.978
      vertex -1.13387 1 1.978
    endloop
  endfacet
  facet normal 0.230939 0 0.972968
    outer loop
      vertex -1.13387 -2 1.978
      vertex -1.72787 1 2.11899
      vertex -1.72787 -2 2.11899
    endloop
  endfacet
  facet normal 0.256926 0 0.966431
    outer loop
      vertex -2.01187 1 2.19449
      vertex -1.72787 -2 2.11899
      vertex -1.72787 1 2.11899
    endloop
  endfacet
  facet normal 0.256926 0 0.966431
    outer loop
      vertex -1.72787 -2 2.11899
      vertex -2.01187 1 2.19449
      vertex -2.01187 -2 2.19449
    endloop
  endfacet
  facet normal 0.365995 0 0.930617
    outer loop
      vertex -2.17587 1 2.25899
      vertex -2.01187 -2 2.19449
      vertex -2.01187 1 2.19449
    endloop
  endfacet
  facet normal 0.365995 0 0.930617
    outer loop
      vertex -2.01187 -2 2.19449
      vertex -2.17587 1 2.25899
      vertex -2.17587 -2 2.25899
    endloop
  endfacet
  facet normal 0.680064 0 0.733153
    outer loop
      vertex -2.29662 1 2.37099
      vertex -2.17587 -2 2.25899
      vertex -2.17587 1 2.25899
    endloop
  endfacet
  facet normal 0.680064 0 0.733153
    outer loop
      vertex -2.17587 -2 2.25899
      vertex -2.29662 1 2.37099
      vertex -2.29662 -2 2.37099
    endloop
  endfacet
  facet normal 0.969048 -0 0.246871
    outer loop
      vertex -2.33687 -2 2.52899
      vertex -2.29662 1 2.37099
      vertex -2.33687 1 2.52899
    endloop
  endfacet
  facet normal 0.969048 0 0.246871
    outer loop
      vertex -2.29662 1 2.37099
      vertex -2.33687 -2 2.52899
      vertex -2.29662 -2 2.37099
    endloop
  endfacet
  facet normal 0.973722 0 -0.227742
    outer loop
      vertex -2.29611 -2 2.70325
      vertex -2.33687 1 2.52899
      vertex -2.29611 1 2.70325
    endloop
  endfacet
  facet normal 0.973722 0 -0.227742
    outer loop
      vertex -2.33687 1 2.52899
      vertex -2.29611 -2 2.70325
      vertex -2.33687 -2 2.52899
    endloop
  endfacet
  facet normal 0.730491 0 -0.682922
    outer loop
      vertex -2.17387 -2 2.834
      vertex -2.29611 1 2.70325
      vertex -2.17387 1 2.834
    endloop
  endfacet
  facet normal 0.730491 0 -0.682922
    outer loop
      vertex -2.29611 1 2.70325
      vertex -2.17387 -2 2.834
      vertex -2.29611 -2 2.70325
    endloop
  endfacet
  facet normal 0.395588 0 -0.918428
    outer loop
      vertex -2.17387 -2 2.834
      vertex -1.98236 1 2.91649
      vertex -1.98236 -2 2.91649
    endloop
  endfacet
  facet normal 0.395588 0 -0.918428
    outer loop
      vertex -1.98236 1 2.91649
      vertex -2.17387 -2 2.834
      vertex -2.17387 1 2.834
    endloop
  endfacet
  facet normal 0.110864 0 -0.993836
    outer loop
      vertex -1.98236 -2 2.91649
      vertex -1.73587 1 2.94398
      vertex -1.73587 -2 2.94398
    endloop
  endfacet
  facet normal 0.110864 0 -0.993836
    outer loop
      vertex -1.73587 1 2.94398
      vertex -1.98236 -2 2.91649
      vertex -1.98236 1 2.91649
    endloop
  endfacet
  facet normal -0.0925056 0 -0.995712
    outer loop
      vertex -1.73587 -2 2.94398
      vertex -1.50987 1 2.92299
      vertex -1.50987 -2 2.92299
    endloop
  endfacet
  facet normal -0.0925056 0 -0.995712
    outer loop
      vertex -1.50987 1 2.92299
      vertex -1.73587 -2 2.94398
      vertex -1.73587 1 2.94398
    endloop
  endfacet
  facet normal -0.320816 0 -0.947142
    outer loop
      vertex -1.50987 -2 2.92299
      vertex -1.32387 1 2.85999
      vertex -1.32387 -2 2.85999
    endloop
  endfacet
  facet normal -0.320816 0 -0.947142
    outer loop
      vertex -1.32387 1 2.85999
      vertex -1.50987 -2 2.92299
      vertex -1.50987 1 2.92299
    endloop
  endfacet
  facet normal -0.665417 0 -0.746472
    outer loop
      vertex -1.32387 -2 2.85999
      vertex -1.13261 1 2.6895
      vertex -1.13261 -2 2.6895
    endloop
  endfacet
  facet normal -0.665417 0 -0.746472
    outer loop
      vertex -1.13261 1 2.6895
      vertex -1.32387 -2 2.85999
      vertex -1.32387 1 2.85999
    endloop
  endfacet
  facet normal -0.959358 0 -0.282191
    outer loop
      vertex -1.05687 -2 2.43199
      vertex -1.13261 1 2.6895
      vertex -1.05687 1 2.43199
    endloop
  endfacet
  facet normal -0.959358 -0 -0.282191
    outer loop
      vertex -1.13261 1 2.6895
      vertex -1.05687 -2 2.43199
      vertex -1.13261 -2 2.6895
    endloop
  endfacet
  facet normal 0 0 -1
    outer loop
      vertex -1.05687 -2 2.43199
      vertex -0.352875 1 2.43199
      vertex -0.352875 -2 2.43199
    endloop
  endfacet
  facet normal -0 0 -1
    outer loop
      vertex -0.352875 1 2.43199
      vertex -1.05687 -2 2.43199
      vertex -1.05687 1 2.43199
    endloop
  endfacet
  facet normal 0.975583 -0 0.219632
    outer loop
      vertex -0.464371 -2 2.92725
      vertex -0.352875 1 2.43199
      vertex -0.464371 1 2.92725
    endloop
  endfacet
  facet normal 0.975583 0 0.219632
    outer loop
      vertex -0.352875 1 2.43199
      vertex -0.464371 -2 2.92725
      vertex -0.352875 -2 2.43199
    endloop
  endfacet
  facet normal 0.773408 -0 0.633909
    outer loop
      vertex -0.760864 -2 3.28899
      vertex -0.464371 1 2.92725
      vertex -0.760864 1 3.28899
    endloop
  endfacet
  facet normal 0.773408 0 0.633909
    outer loop
      vertex -0.464371 1 2.92725
      vertex -0.760864 -2 3.28899
      vertex -0.464371 -2 2.92725
    endloop
  endfacet
  facet normal 0.457944 0 0.888981
    outer loop
      vertex -1.19037 1 3.51024
      vertex -0.760864 -2 3.28899
      vertex -0.760864 1 3.28899
    endloop
  endfacet
  facet normal 0.457944 0 0.888981
    outer loop
      vertex -0.760864 -2 3.28899
      vertex -1.19037 1 3.51024
      vertex -1.19037 -2 3.51024
    endloop
  endfacet
  facet normal 0.143003 0 0.989722
    outer loop
      vertex -1.70087 1 3.584
      vertex -1.19037 -2 3.51024
      vertex -1.19037 1 3.51024
    endloop
  endfacet
  facet normal 0.143003 0 0.989722
    outer loop
      vertex -1.19037 -2 3.51024
      vertex -1.70087 1 3.584
      vertex -1.70087 -2 3.584
    endloop
  endfacet
  facet normal -0.132145 0 0.99123
    outer loop
      vertex -2.28036 1 3.50674
      vertex -1.70087 -2 3.584
      vertex -1.70087 1 3.584
    endloop
  endfacet
  facet normal -0.132145 0 0.99123
    outer loop
      vertex -1.70087 -2 3.584
      vertex -2.28036 1 3.50674
      vertex -2.28036 -2 3.50674
    endloop
  endfacet
  facet normal -0.482677 0 0.875798
    outer loop
      vertex -2.70087 1 3.27499
      vertex -2.28036 -2 3.50674
      vertex -2.28036 1 3.50674
    endloop
  endfacet
  facet normal -0.482677 0 0.875798
    outer loop
      vertex -2.28036 -2 3.50674
      vertex -2.70087 1 3.27499
      vertex -2.70087 -2 3.27499
    endloop
  endfacet
  facet normal -0.807021 0 0.590522
    outer loop
      vertex -2.95587 -2 2.9265
      vertex -2.70087 1 3.27499
      vertex -2.95587 1 2.9265
    endloop
  endfacet
  facet normal -0.807021 0 0.590522
    outer loop
      vertex -2.70087 1 3.27499
      vertex -2.95587 -2 2.9265
      vertex -2.70087 -2 3.27499
    endloop
  endfacet
  facet normal -0.980805 0 0.194992
    outer loop
      vertex -3.04086 -2 2.49899
      vertex -2.95587 1 2.9265
      vertex -3.04086 1 2.49899
    endloop
  endfacet
  facet normal -0.980805 0 0.194992
    outer loop
      vertex -2.95587 1 2.9265
      vertex -3.04086 -2 2.49899
      vertex -2.95587 -2 2.9265
    endloop
  endfacet
  facet normal -0.980838 0 -0.194827
    outer loop
      vertex -2.95262 -2 2.05475
      vertex -3.04086 1 2.49899
      vertex -2.95262 1 2.05475
    endloop
  endfacet
  facet normal -0.980838 -0 -0.194827
    outer loop
      vertex -3.04086 1 2.49899
      vertex -2.95262 -2 2.05475
      vertex -3.04086 -2 2.49899
    endloop
  endfacet
  facet normal -0.759132 0 -0.650937
    outer loop
      vertex -2.68787 -2 1.74599
      vertex -2.95262 1 2.05475
      vertex -2.68787 1 1.74599
    endloop
  endfacet
  facet normal -0.759132 -0 -0.650937
    outer loop
      vertex -2.95262 1 2.05475
      vertex -2.68787 -2 1.74599
      vertex -2.95262 -2 2.05475
    endloop
  endfacet
  facet normal -0.426387 0 -0.904541
    outer loop
      vertex -2.68787 -2 1.74599
      vertex -2.39511 1 1.60799
      vertex -2.39511 -2 1.60799
    endloop
  endfacet
  facet normal -0.426387 0 -0.904541
    outer loop
      vertex -2.39511 1 1.60799
      vertex -2.68787 -2 1.74599
      vertex -2.68787 1 1.74599
    endloop
  endfacet
  facet normal -0.264032 0 -0.964514
    outer loop
      vertex -2.39511 -2 1.60799
      vertex -1.93486 1 1.48199
      vertex -1.93486 -2 1.48199
    endloop
  endfacet
  facet normal -0.264032 0 -0.964514
    outer loop
      vertex -1.93486 1 1.48199
      vertex -2.39511 -2 1.60799
      vertex -2.39511 1 1.60799
    endloop
  endfacet
  facet normal -0.217496 0 -0.976061
    outer loop
      vertex -1.93486 -2 1.48199
      vertex -1.56686 1 1.39999
      vertex -1.56686 -2 1.39999
    endloop
  endfacet
  facet normal -0.217496 0 -0.976061
    outer loop
      vertex -1.56686 1 1.39999
      vertex -1.93486 -2 1.48199
      vertex -1.93486 1 1.48199
    endloop
  endfacet
  facet normal -0.250397 0 -0.968143
    outer loop
      vertex -1.56686 -2 1.39999
      vertex -1.28462 1 1.327
      vertex -1.28462 -2 1.327
    endloop
  endfacet
  facet normal -0.250397 0 -0.968143
    outer loop
      vertex -1.28462 1 1.327
      vertex -1.56686 -2 1.39999
      vertex -1.56686 1 1.39999
    endloop
  endfacet
  facet normal -0.377426 0 -0.92604
    outer loop
      vertex -1.28462 -2 1.327
      vertex -1.08586 1 1.24599
      vertex -1.08586 -2 1.24599
    endloop
  endfacet
  facet normal -0.377426 0 -0.92604
    outer loop
      vertex -1.08586 1 1.24599
      vertex -1.28462 -2 1.327
      vertex -1.28462 1 1.327
    endloop
  endfacet
  facet normal -0.66557 0 -0.746336
    outer loop
      vertex -1.08586 -2 1.24599
      vertex -0.968124 1 1.14099
      vertex -0.968124 -2 1.14099
    endloop
  endfacet
  facet normal -0.66557 0 -0.746336
    outer loop
      vertex -0.968124 1 1.14099
      vertex -1.08586 -2 1.24599
      vertex -1.08586 1 1.24599
    endloop
  endfacet
  facet normal -0.963347 0 -0.268257
    outer loop
      vertex -0.928864 -2 1
      vertex -0.968124 1 1.14099
      vertex -0.928864 1 1
    endloop
  endfacet
  facet normal -0.963347 -0 -0.268257
    outer loop
      vertex -0.968124 1 1.14099
      vertex -0.928864 -2 1
      vertex -0.968124 -2 1.14099
    endloop
  endfacet
  facet normal -0.948164 0 0.317782
    outer loop
      vertex -1.00562 -2 0.770996
      vertex -0.928864 1 1
      vertex -1.00562 1 0.770996
    endloop
  endfacet
  facet normal -0.948164 0 0.317782
    outer loop
      vertex -0.928864 1 1
      vertex -1.00562 -2 0.770996
      vertex -0.928864 -2 1
    endloop
  endfacet
  facet normal -0.527598 0 0.849494
    outer loop
      vertex -1.23587 1 0.627991
      vertex -1.00562 -2 0.770996
      vertex -1.00562 1 0.770996
    endloop
  endfacet
  facet normal -0.527598 0 0.849494
    outer loop
      vertex -1.00562 -2 0.770996
      vertex -1.23587 1 0.627991
      vertex -1.23587 -2 0.627991
    endloop
  endfacet
  facet normal -0.204703 0 0.978824
    outer loop
      vertex -1.42236 1 0.588989
      vertex -1.23587 -2 0.627991
      vertex -1.23587 1 0.627991
    endloop
  endfacet
  facet normal -0.204703 0 0.978824
    outer loop
      vertex -1.23587 -2 0.627991
      vertex -1.42236 1 0.588989
      vertex -1.42236 -2 0.588989
    endloop
  endfacet
  facet normal -0.0551189 0 0.99848
    outer loop
      vertex -1.65787 1 0.575989
      vertex -1.42236 -2 0.588989
      vertex -1.42236 1 0.588989
    endloop
  endfacet
  facet normal -0.0551189 0 0.99848
    outer loop
      vertex -1.42236 -2 0.588989
      vertex -1.65787 1 0.575989
      vertex -1.65787 -2 0.575989
    endloop
  endfacet
  facet normal 0.129476 0 0.991583
    outer loop
      vertex -2.02737 1 0.624237
      vertex -1.65787 -2 0.575989
      vertex -1.65787 1 0.575989
    endloop
  endfacet
  facet normal 0.129476 0 0.991583
    outer loop
      vertex -1.65787 -2 0.575989
      vertex -2.02737 1 0.624237
      vertex -2.02737 -2 0.624237
    endloop
  endfacet
  facet normal 0.51258 0 0.85864
    outer loop
      vertex -2.26987 1 0.768997
      vertex -2.02737 -2 0.624237
      vertex -2.02737 1 0.624237
    endloop
  endfacet
  facet normal 0.51258 0 0.85864
    outer loop
      vertex -2.02737 -2 0.624237
      vertex -2.26987 1 0.768997
      vertex -2.26987 -2 0.768997
    endloop
  endfacet
  facet normal 0.850585 -0 0.525838
    outer loop
      vertex -2.35162 -2 0.901245
      vertex -2.26987 1 0.768997
      vertex -2.35162 1 0.901245
    endloop
  endfacet
  facet normal 0.850585 0 0.525838
    outer loop
      vertex -2.26987 1 0.768997
      vertex -2.35162 -2 0.901245
      vertex -2.26987 -2 0.768997
    endloop
  endfacet
  facet normal 0.966954 -0 0.254952
    outer loop
      vertex -2.40086 -2 1.088
      vertex -2.35162 1 0.901245
      vertex -2.40086 1 1.088
    endloop
  endfacet
  facet normal 0.966954 0 0.254952
    outer loop
      vertex -2.35162 1 0.901245
      vertex -2.40086 -2 1.088
      vertex -2.35162 -2 0.901245
    endloop
  endfacet
  facet normal -0 0 1
    outer loop
      vertex -3.10487 1 1.088
      vertex -2.40086 -2 1.088
      vertex -2.40086 1 1.088
    endloop
  endfacet
  facet normal 0 0 1
    outer loop
      vertex -2.40086 -2 1.088
      vertex -3.10487 1 1.088
      vertex -3.10487 -2 1.088
    endloop
  endfacet
  facet normal -0.979667 0 -0.200632
    outer loop
      vertex -3.00662 -2 0.608246
      vertex -3.10487 1 1.088
      vertex -3.00662 1 0.608246
    endloop
  endfacet
  facet normal -0.979667 -0 -0.200632
    outer loop
      vertex -3.10487 1 1.088
      vertex -3.00662 -2 0.608246
      vertex -3.10487 -2 1.088
    endloop
  endfacet
  facet normal -0.778207 0 -0.628008
    outer loop
      vertex -2.71187 -2 0.242996
      vertex -3.00662 1 0.608246
      vertex -2.71187 1 0.242996
    endloop
  endfacet
  facet normal -0.778207 -0 -0.628008
    outer loop
      vertex -3.00662 1 0.608246
      vertex -2.71187 -2 0.242996
      vertex -3.00662 -2 0.608246
    endloop
  endfacet
  facet normal -0.442795 0 -0.896623
    outer loop
      vertex -2.71187 -2 0.242996
      vertex -2.24562 1 0.0127411
      vertex -2.24562 -2 0.0127411
    endloop
  endfacet
  facet normal -0.442795 0 -0.896623
    outer loop
      vertex -2.24562 1 0.0127411
      vertex -2.71187 -2 0.242996
      vertex -2.71187 1 0.242996
    endloop
  endfacet
  facet normal -0.124263 -2.19942e-16 -0.992249
    outer loop
      vertex -2.24562 -2 0.0127411
      vertex -2.14388 1 -2.22045e-16
      vertex -2.14388 -2 4.44089e-16
    endloop
  endfacet
  facet normal -0.124263 0 -0.992249
    outer loop
      vertex -2.14388 1 -2.22045e-16
      vertex -2.24562 -2 0.0127411
      vertex -2.24562 1 0.0127411
    endloop
  endfacet
  facet normal 0.129345 0 -0.9916
    outer loop
      vertex -1.14226 -2 4.44089e-16
      vertex -1.03687 1 0.0137482
      vertex -1.03687 -2 0.0137482
    endloop
  endfacet
  facet normal 0.129345 -2.20327e-16 -0.9916
    outer loop
      vertex -1.03687 1 0.0137482
      vertex -1.14226 -2 4.44089e-16
      vertex -1.14226 1 -2.22045e-16
    endloop
  endfacet
  facet normal 0.727728 0 -0.685866
    outer loop
      vertex 1.31613 -2 1.48999
      vertex 1.02113 1 1.17699
      vertex 1.31613 1 1.48999
    endloop
  endfacet
  facet normal 0.727728 0 -0.685866
    outer loop
      vertex 1.02113 1 1.17699
      vertex 1.31613 -2 1.48999
      vertex 1.02113 -2 1.17699
    endloop
  endfacet
  facet normal -0.816905 -1.28069e-16 -0.576773
    outer loop
      vertex 2.36813 -2 4.44089e-16
      vertex 1.31613 1 1.48999
      vertex 2.36813 1 -2.22045e-16
    endloop
  endfacet
  facet normal -0.816905 -0 -0.576773
    outer loop
      vertex 1.31613 1 1.48999
      vertex 2.36813 -2 4.44089e-16
      vertex 1.31613 -2 1.48999
    endloop
  endfacet
  facet normal 0.819775 -0 0.572685
    outer loop
      vertex 1.86313 -2 2.047
      vertex 3.29314 1 -2.22045e-16
      vertex 1.86313 1 2.047
    endloop
  endfacet
  facet normal 0.819775 1.27162e-16 0.572685
    outer loop
      vertex 3.29314 1 -2.22045e-16
      vertex 1.86313 -2 2.047
      vertex 3.29314 -2 4.44089e-16
    endloop
  endfacet
  facet normal 0.734972 0 -0.678098
    outer loop
      vertex 3.22214 -2 3.51999
      vertex 1.86313 1 2.047
      vertex 3.22214 1 3.51999
    endloop
  endfacet
  facet normal 0.734972 0 -0.678098
    outer loop
      vertex 1.86313 1 2.047
      vertex 3.22214 -2 3.51999
      vertex 1.86313 -2 2.047
    endloop
  endfacet
  facet normal -0 0 1
    outer loop
      vertex 2.27814 1 3.51999
      vertex 3.22214 -2 3.51999
      vertex 3.22214 1 3.51999
    endloop
  endfacet
  facet normal 0 0 1
    outer loop
      vertex 3.22214 -2 3.51999
      vertex 2.27814 1 3.51999
      vertex 2.27814 -2 3.51999
    endloop
  endfacet
  facet normal -0.729332 0 0.68416
    outer loop
      vertex 1.02113 -2 2.17999
      vertex 2.27814 1 3.51999
      vertex 1.02113 1 2.17999
    endloop
  endfacet
  facet normal -0.729332 0 0.68416
    outer loop
      vertex 2.27814 1 3.51999
      vertex 1.02113 -2 2.17999
      vertex 2.27814 -2 3.51999
    endloop
  endfacet
  facet normal 1 -0 0
    outer loop
      vertex 1.02113 -2 3.51999
      vertex 1.02113 1 2.17999
      vertex 1.02113 1 3.51999
    endloop
  endfacet
  facet normal 1 0 0
    outer loop
      vertex 1.02113 1 2.17999
      vertex 1.02113 -2 3.51999
      vertex 1.02113 -2 2.17999
    endloop
  endfacet
  facet normal -0 0 1
    outer loop
      vertex 0.253128 1 3.51999
      vertex 1.02113 -2 3.51999
      vertex 1.02113 1 3.51999
    endloop
  endfacet
  facet normal 0 0 1
    outer loop
      vertex 1.02113 -2 3.51999
      vertex 0.253128 1 3.51999
      vertex 0.253128 -2 3.51999
    endloop
  endfacet
  facet normal -1 0 0
    outer loop
      vertex 0.253128 -0.5 1.11022e-16
      vertex 0.253128 -2 4.44089e-16
      vertex 0.253128 -0.5 0.5
    endloop
  endfacet
  facet normal -1 0 0
    outer loop
      vertex 0.253128 0.5 0.5
      vertex 0.253128 1 -2.22045e-16
      vertex 0.253128 0.5 -1.11022e-16
    endloop
  endfacet
  facet normal -1 0 0
    outer loop
      vertex 0.253128 1 -2.22045e-16
      vertex 0.253128 0.5 0.5
      vertex 0.253128 1 3.51999
    endloop
  endfacet
  facet normal -1 0 0
    outer loop
      vertex 0.253128 -0.5 0.5
      vertex 0.253128 1 3.51999
      vertex 0.253128 0.5 0.5
    endloop
  endfacet
  facet normal -1 0 0
    outer loop
      vertex 0.253128 -2 3.51999
      vertex 0.253128 -0.5 0.5
      vertex 0.253128 -2 4.44089e-16
    endloop
  endfacet
  facet normal -1 0 0
    outer loop
      vertex 0.253128 -0.5 0.5
      vertex 0.253128 -2 3.51999
      vertex 0.253128 1 3.51999
    endloop
  endfacet
  facet normal 1 -0 0
    outer loop
      vertex 1.02113 -2 1.17699
      vertex 1.02113 1 -2.22045e-16
      vertex 1.02113 1 1.17699
    endloop
  endfacet
  facet normal 1 0 0
    outer loop
      vertex 1.02113 1 -2.22045e-16
      vertex 1.02113 -2 1.17699
      vertex 1.02113 -2 4.44089e-16
    endloop
  endfacet
  facet normal -1 0 0
    outer loop
      vertex -5 1 -5
      vertex -5 11 5
      vertex -5 11 -5
    endloop
  endfacet
  facet normal -1 -0 0
    outer loop
      vertex -5 11 5
      vertex -5 1 -5
      vertex -5 1 5
    endloop
  endfacet
  facet normal -0 0 1
    outer loop
      vertex -5 11 5
      vertex 5 1 5
      vertex 5 11 5
    endloop
  endfacet
  facet normal 0 0 1
    outer loop
      vertex 5 1 5
      vertex -5 11 5
      vertex -5 1 5
    endloop
  endfacet
  facet normal 1 -0 0
    outer loop
      vertex 5 1 5
      vertex 5 11 -5
      vertex 5 11 5
    endloop
  endfacet
  facet normal 1 0 0
    outer loop
      vertex 5 11 -5
      vertex 5 1 5
      vertex 5 1 -5
    endloop
  endfacet
  facet normal 0 1 -0
    outer loop
      vertex 5 11 -5
      vertex -5 11 5
      vertex 5 11 5
    endloop
  endfacet
  facet normal 0 1 0
    outer loop
      vertex -5 11 5
      vertex 5 11 -5
      vertex -5 11 -5
    endloop
  endfacet
  facet normal 0 0 -1
    outer loop
      vertex 3.3 2 -5
      vertex 5 1 -5
      vertex 3.3 1.58468 -5
    endloop
  endfacet
  facet normal 0 0 -1
    outer loop
      vertex 5 1 -5
      vertex -3.3 1.58468 -5
      vertex 3.3 1.58468 -5
    endloop
  endfacet
  facet normal -0 0 -1
    outer loop
      vertex -3.3 1.58468 -5
      vertex -5 1 -5
      vertex -3.3 2 -5
    endloop
  endfacet
  facet normal 0 0 -1
    outer loop
      vertex -5 1 -5
      vertex -3.3 1.58468 -5
      vertex 5 1 -5
    endloop
  endfacet
  facet normal 0 0 -1
    outer loop
      vertex 5 1 -5
      vertex 3.3 2 -5
      vertex 5 11 -5
    endloop
  endfacet
  facet normal 0 0 -1
    outer loop
      vertex -3.3 2 -5
      vertex 5 11 -5
      vertex 3.3 2 -5
    endloop
  endfacet
  facet normal 0 0 -1
    outer loop
      vertex -5 11 -5
      vertex -3.3 2 -5
      vertex -5 1 -5
    endloop
  endfacet
  facet normal 0 0 -1
    outer loop
      vertex -3.3 2 -5
      vertex -5 11 -5
      vertex 5 11 -5
    endloop
  endfacet
  facet normal 0 -1 0
    outer loop
      vertex -1.65787 1 0.575989
      vertex -1.56686 1 1.39999
      vertex -2.02737 1 0.624237
    endloop
  endfacet
  facet normal 0 -1 0
    outer loop
      vertex -1.56686 1 1.39999
      vertex -1.42236 1 0.588989
      vertex -1.28462 1 1.327
    endloop
  endfacet
  facet normal 0 -1 0
    outer loop
      vertex -2.02737 1 0.624237
      vertex -2.40086 1 1.088
      vertex -2.35162 1 0.901245
    endloop
  endfacet
  facet normal -0 -1 0
    outer loop
      vertex -1.23587 1 0.627991
      vertex -1.28462 1 1.327
      vertex -1.42236 1 0.588989
    endloop
  endfacet
  facet normal 0 -1 0
    outer loop
      vertex -2.02737 1 0.624237
      vertex -2.35162 1 0.901245
      vertex -2.26987 1 0.768997
    endloop
  endfacet
  facet normal -0 -1 0
    outer loop
      vertex -1.00562 1 0.770996
      vertex -1.28462 1 1.327
      vertex -1.23587 1 0.627991
    endloop
  endfacet
  facet normal -0 -1 0
    outer loop
      vertex -1.42236 1 0.588989
      vertex -1.56686 1 1.39999
      vertex -1.65787 1 0.575989
    endloop
  endfacet
  facet normal 0 -1 0
    outer loop
      vertex -1.28462 1 1.327
      vertex -1.00562 1 0.770996
      vertex -0.968124 1 1.14099
    endloop
  endfacet
  facet normal 0 -1 -0
    outer loop
      vertex -0.968124 1 1.14099
      vertex -1.00562 1 0.770996
      vertex -0.928864 1 1
    endloop
  endfacet
  facet normal 0 -1 -0
    outer loop
      vertex -2.24562 1 0.0127411
      vertex -3.3 1 -2.22045e-16
      vertex -2.14388 1 -2.22045e-16
    endloop
  endfacet
  facet normal 0 -1 0
    outer loop
      vertex -2.01187 1 2.19449
      vertex -1.73587 1 2.94398
      vertex -1.98236 1 2.91649
    endloop
  endfacet
  facet normal 0 -1 0
    outer loop
      vertex -1.73587 1 2.94398
      vertex -1.72787 1 2.11899
      vertex -1.50987 1 2.92299
    endloop
  endfacet
  facet normal 0 -1 0
    outer loop
      vertex -2.01187 1 2.19449
      vertex -1.98236 1 2.91649
      vertex -2.17387 1 2.834
    endloop
  endfacet
  facet normal 0 -1 0
    outer loop
      vertex -2.01187 1 2.19449
      vertex -2.17387 1 2.834
      vertex -2.29611 1 2.70325
    endloop
  endfacet
  facet normal 0 -1 -0
    outer loop
      vertex -1.73587 1 2.94398
      vertex -2.01187 1 2.19449
      vertex -1.72787 1 2.11899
    endloop
  endfacet
  facet normal 0 -1 0
    outer loop
      vertex -2.01187 1 2.19449
      vertex -2.29611 1 2.70325
      vertex -2.33687 1 2.52899
    endloop
  endfacet
  facet normal 0 -1 -0
    outer loop
      vertex -1.50987 1 2.92299
      vertex -1.72787 1 2.11899
      vertex -1.32387 1 2.85999
    endloop
  endfacet
  facet normal 0 -1 -0
    outer loop
      vertex -1.32387 1 2.85999
      vertex -1.72787 1 2.11899
      vertex -1.13261 1 2.6895
    endloop
  endfacet
  facet normal 0 -1 0
    outer loop
      vertex -2.01187 1 2.19449
      vertex -2.33687 1 2.52899
      vertex -2.29662 1 2.37099
    endloop
  endfacet
  facet normal 0 -1 0
    outer loop
      vertex 1.02113 1 3.51999
      vertex 1.02113 1 2.17999
      vertex 2.27814 1 3.51999
    endloop
  endfacet
  facet normal 0 -1 0
    outer loop
      vertex -1.19037 1 3.51024
      vertex 0.253128 1 3.51999
      vertex -1.70087 1 3.584
    endloop
  endfacet
  facet normal 0 -1 0
    outer loop
      vertex -0.760864 1 3.28899
      vertex 0.253128 1 3.51999
      vertex -1.19037 1 3.51024
    endloop
  endfacet
  facet normal 0 -1 0
    outer loop
      vertex -0.464371 1 2.92725
      vertex 0.253128 1 3.51999
      vertex -0.760864 1 3.28899
    endloop
  endfacet
  facet normal 0 -1 0
    outer loop
      vertex -0.352875 1 2.43199
      vertex 0.253128 1 3.51999
      vertex -0.464371 1 2.92725
    endloop
  endfacet
  facet normal 0 -1 0
    outer loop
      vertex -2.01187 1 2.19449
      vertex -2.29662 1 2.37099
      vertex -2.17587 1 2.25899
    endloop
  endfacet
  facet normal 0 -1 -0
    outer loop
      vertex -1.13261 1 2.6895
      vertex -1.72787 1 2.11899
      vertex -1.05687 1 2.43199
    endloop
  endfacet
  facet normal 0 -1 0
    outer loop
      vertex -1.13387 1 1.978
      vertex -1.05687 1 2.43199
      vertex -1.72787 1 2.11899
    endloop
  endfacet
  facet normal 0 -1 0
    outer loop
      vertex -0.790619 1 1.86925
      vertex -1.05687 1 2.43199
      vertex -1.13387 1 1.978
    endloop
  endfacet
  facet normal 0 -1 0
    outer loop
      vertex -1.05687 1 2.43199
      vertex -0.790619 1 1.86925
      vertex -0.352875 1 2.43199
    endloop
  endfacet
  facet normal 0 -1 0
    outer loop
      vertex -0.540863 1 1.72899
      vertex -0.352875 1 2.43199
      vertex -0.790619 1 1.86925
    endloop
  endfacet
  facet normal 0 -1 0
    outer loop
      vertex -0.303864 1 1.43274
      vertex -0.352875 1 2.43199
      vertex -0.540863 1 1.72899
    endloop
  endfacet
  facet normal 0 -1 0
    outer loop
      vertex -0.352875 1 2.43199
      vertex -0.303864 1 1.43274
      vertex 0.253128 1 3.51999
    endloop
  endfacet
  facet normal 0 -1 0
    outer loop
      vertex -0.224869 1 1.028
      vertex 0.253128 1 3.51999
      vertex -0.303864 1 1.43274
    endloop
  endfacet
  facet normal 0 -1 0
    outer loop
      vertex -0.224869 1 1.028
      vertex 0.253128 1 -2.22045e-16
      vertex 0.253128 1 3.51999
    endloop
  endfacet
  facet normal 0 -1 0
    outer loop
      vertex -0.316864 1 0.597748
      vertex 0.253128 1 -2.22045e-16
      vertex -0.224869 1 1.028
    endloop
  endfacet
  facet normal 0 -1 0
    outer loop
      vertex -0.592865 1 0.246994
      vertex 0.253128 1 -2.22045e-16
      vertex -0.316864 1 0.597748
    endloop
  endfacet
  facet normal 0 -1 0
    outer loop
      vertex -1.03687 1 0.0137482
      vertex 0.253128 1 -2.22045e-16
      vertex -0.592865 1 0.246994
    endloop
  endfacet
  facet normal 0 -1 0
    outer loop
      vertex 0.253128 1 -2.22045e-16
      vertex -1.03687 1 0.0137482
      vertex -1.14226 1 -2.22045e-16
    endloop
  endfacet
  facet normal 0 -1 0
    outer loop
      vertex 0.253128 1 3.51999
      vertex -5 1 5
      vertex -1.70087 1 3.584
    endloop
  endfacet
  facet normal 0 -1 0
    outer loop
      vertex -5 1 5
      vertex -2.28036 1 3.50674
      vertex -1.70087 1 3.584
    endloop
  endfacet
  facet normal 0 -1 0
    outer loop
      vertex -5 1 5
      vertex -2.70087 1 3.27499
      vertex -2.28036 1 3.50674
    endloop
  endfacet
  facet normal 0 -1 0
    outer loop
      vertex -5 1 5
      vertex -2.95587 1 2.9265
      vertex -2.70087 1 3.27499
    endloop
  endfacet
  facet normal 0 -1 0
    outer loop
      vertex -5 1 5
      vertex -3.04086 1 2.49899
      vertex -2.95587 1 2.9265
    endloop
  endfacet
  facet normal 0 -1 0
    outer loop
      vertex -3.10487 1 1.088
      vertex -3.04086 1 2.49899
      vertex -5 1 5
    endloop
  endfacet
  facet normal 0 -1 -0
    outer loop
      vertex -2.39511 1 1.60799
      vertex -2.40086 1 1.088
      vertex -1.93486 1 1.48199
    endloop
  endfacet
  facet normal 0 -1 -0
    outer loop
      vertex -1.93486 1 1.48199
      vertex -2.02737 1 0.624237
      vertex -1.56686 1 1.39999
    endloop
  endfacet
  facet normal 0 -1 0
    outer loop
      vertex -2.68787 1 1.74599
      vertex -2.40086 1 1.088
      vertex -2.39511 1 1.60799
    endloop
  endfacet
  facet normal 0 -1 0
    outer loop
      vertex -2.02737 1 0.624237
      vertex -1.93486 1 1.48199
      vertex -2.40086 1 1.088
    endloop
  endfacet
  facet normal 0 -1 0
    outer loop
      vertex -1.28462 1 1.327
      vertex -0.968124 1 1.14099
      vertex -1.08586 1 1.24599
    endloop
  endfacet
  facet normal 0 -1 0
    outer loop
      vertex -2.40086 1 1.088
      vertex -2.68787 1 1.74599
      vertex -3.10487 1 1.088
    endloop
  endfacet
  facet normal 0 -1 -0
    outer loop
      vertex -2.95262 1 2.05475
      vertex -3.10487 1 1.088
      vertex -2.68787 1 1.74599
    endloop
  endfacet
  facet normal 0 -1 -0
    outer loop
      vertex -3.04086 1 2.49899
      vertex -3.10487 1 1.088
      vertex -2.95262 1 2.05475
    endloop
  endfacet
  facet normal 0 -1 0
    outer loop
      vertex -3.3 1 -2.22045e-16
      vertex -3.10487 1 1.088
      vertex -5 1 5
    endloop
  endfacet
  facet normal 0 -1 -0
    outer loop
      vertex -2.71187 1 0.242996
      vertex -3.3 1 -2.22045e-16
      vertex -2.24562 1 0.0127411
    endloop
  endfacet
  facet normal 0 -1 -0
    outer loop
      vertex -3.00662 1 0.608246
      vertex -3.3 1 -2.22045e-16
      vertex -2.71187 1 0.242996
    endloop
  endfacet
  facet normal 0 -1 -0
    outer loop
      vertex -3.10487 1 1.088
      vertex -3.3 1 -2.22045e-16
      vertex -3.00662 1 0.608246
    endloop
  endfacet
  facet normal 0 -1 0
    outer loop
      vertex -5 1 -5
      vertex -3.3 1 -2.22045e-16
      vertex -5 1 5
    endloop
  endfacet
  facet normal 0 -1 -0
    outer loop
      vertex -3.3 1 -4.3032
      vertex -5 1 -5
      vertex 3.3 1 -4.3032
    endloop
  endfacet
  facet normal 0 -1 -0
    outer loop
      vertex -3.3 1 -2.22045e-16
      vertex -5 1 -5
      vertex -3.3 1 -4.3032
    endloop
  endfacet
  facet normal 0 -1 0
    outer loop
      vertex -5 1 5
      vertex 0.253128 1 3.51999
      vertex 5 1 5
    endloop
  endfacet
  facet normal 0 -1 0
    outer loop
      vertex 1.02113 1 3.51999
      vertex 5 1 5
      vertex 0.253128 1 3.51999
    endloop
  endfacet
  facet normal 0 -1 0
    outer loop
      vertex 2.27814 1 3.51999
      vertex 5 1 5
      vertex 1.02113 1 3.51999
    endloop
  endfacet
  facet normal 0 -1 0
    outer loop
      vertex 3.22214 1 3.51999
      vertex 5 1 5
      vertex 2.27814 1 3.51999
    endloop
  endfacet
  facet normal 0 -1 0
    outer loop
      vertex 3.3 1 -2.22045e-16
      vertex 3.22214 1 3.51999
      vertex 1.86313 1 2.047
    endloop
  endfacet
  facet normal 0 -1 0
    outer loop
      vertex 3.3 1 -2.22045e-16
      vertex 1.86313 1 2.047
      vertex 3.29314 1 -2.22045e-16
    endloop
  endfacet
  facet normal 0 -1 0
    outer loop
      vertex 3.22214 1 3.51999
      vertex 3.3 1 -2.22045e-16
      vertex 5 1 5
    endloop
  endfacet
  facet normal 0 -1 0
    outer loop
      vertex 5 1 -5
      vertex 3.3 1 -2.22045e-16
      vertex 3.3 1 -4.3032
    endloop
  endfacet
  facet normal 0 -1 0
    outer loop
      vertex 3.3 1 -2.22045e-16
      vertex 5 1 -5
      vertex 5 1 5
    endloop
  endfacet
  facet normal 0 -1 0
    outer loop
      vertex 5 1 -5
      vertex 3.3 1 -4.3032
      vertex -5 1 -5
    endloop
  endfacet
  facet normal 0 -1 0
    outer loop
      vertex 2.36813 1 -2.22045e-16
      vertex 1.02113 1 1.17699
      vertex 1.02113 1 -2.22045e-16
    endloop
  endfacet
  facet normal 0 -1 0
    outer loop
      vertex 1.02113 1 1.17699
      vertex 2.36813 1 -2.22045e-16
      vertex 1.31613 1 1.48999
    endloop
  endfacet
endsolid OpenSCAD_Model
